<svg xmlns="http://www.w3.org/2000/svg" xmlns:xlink="http://www.w3.org/1999/xlink" viewBox="0 0 618.46 481"><defs><style>.cls-1{fill:none;}.cls-2{clip-path:url(#clip-path);}</style><clipPath id="clip-path" transform="translate(0 0)"><rect class="cls-1" width="618.46" height="481"/></clipPath></defs><title>Kanone</title><g id="Ebene_2" data-name="Ebene 2"><g id="Ebene_1-2" data-name="Ebene 1"><g id="Kanone"><g class="cls-2"><g class="cls-2"><path d="M112,147.42C101.19,140.6,91.76,134.3,82,128.63,61.84,117,49.9,99.89,50.12,76.53c0-5.83,7.37-11.61,11.05-17.43C65.52,64,72.82,68.35,73.66,73.84a45.49,45.49,0,0,0,24.21,34.59c12.09,7,23.4,15.33,37.1,24.43A413.24,413.24,0,0,1,285.34,79.4c43-6.48,86.43-9.91,129.36-16.76a209.54,209.54,0,0,0,57.41-18.1c11.05-5.37,18.42-18.42,28.22-27.19C507.92,10.5,516.32.77,525,0c7.78-.63,20.45,7.37,24.06,14.73Q584.93,89.09,617,165.25c3.09,7.37,1,21.33-4.31,26.49-6.08,5.9-20.2,9.87-27.67,6.85-23.66-9.54-45.07-3.68-62.31,9.77-39.83,31.5-77.6,65.61-115.58,99.48-2.95,2.61-2.62,11.05-1.48,16C421.74,394.87,384,458.72,314.81,477.1a121.58,121.58,0,0,1-129.87-47.64,47,47,0,0,0-28.82-19.41c-20-5.42-39.31-13.16-60.68-20.53-27.86,16.4-47.9,13.05-69.49-15.69C9.59,351.72-1.46,327.29.16,298.89c1.18-19.2,8.21-34.31,29.25-39.28,3.95-1,9.62-4.83,10.21-8.07,7.81-44.88,36.07-75.31,72.4-104.12m277.84,140c4.94-4.35,10-8.7,14.74-13.12,25.61-22.84,50.78-46.24,76.93-68.46,31.76-26.89,66.33-46,112.16-32.09C570.88,123.25,549,74.91,526.16,24.35,509,61.2,478,74.72,444,83.49c-10.65,2.76-21.7,3.68-32.61,5.6-60.31,9.8-121.59,16-180.54,30.36C175.61,132.83,125.43,160,88.73,205.78c-27.37,34.15-33.67,72.33-16,113.7,16.87,39.5,49,57,89,65.22,1-83.71,24.14-124.13,82.32-145.32,51.43-18.79,101-2.73,145.82,48Zm-6.18,69.27a98.61,98.61,0,0,0-97.57-98.86c-54.16-.4-100.7,45.43-100.36,98.82s45.32,98.26,98.52,99.19,99.41-44.59,99.41-99.15M32.62,287.1c-11.28,13.37-8.55,38.06,8.25,63.55C53,369.08,61.51,374,70.35,371.18Z" transform="translate(0 0)"/><path d="M347,357.73c-.3,34.78-27.16,60.72-62.64,60.35a60,60,0,0,1-61.14-58.87c0-1,0-2,0-3a60.72,60.72,0,0,1,59.94-61.5H285c36,.15,62.3,26.83,62,63.05m-62.23-37.21c-19.64.29-36.85,17.09-36.85,36s19.86,38.21,38.43,37.29a38.9,38.9,0,0,0,35.33-38,36.32,36.32,0,0,0-36.91-35.18Z" transform="translate(0 0)"/></g></g></g></g></g></svg>