<svg xmlns="http://www.w3.org/2000/svg" viewBox="0 0 386.76 467.9"><defs><style>.cls-1{fill:#f8f8f8;}.cls-2{fill:#040404;}.cls-3{fill:#010101;}.cls-4{fill:#030303;}.cls-5{fill:#060606;}.cls-6{fill:#050505;}.cls-7{fill:#050504;}.cls-8{fill:#060605;}.cls-9{fill:#070707;}.cls-10{fill:#171717;}</style></defs><title>clock</title><g id="Ebene_2" data-name="Ebene 2"><g id="Ebene_1-2" data-name="Ebene 1"><path class="cls-1" d="M381.71,461.81c.72,1.18,1.9,1,3,1a4.77,4.77,0,0,1-.8,1.22c-1.89,1.54-4,5.48-6.06,3.16S380.05,463.49,381.71,461.81Z"/><path class="cls-1" d="M301.88,461.81c.72,1.17,1.9,1,3,1a5,5,0,0,1-.79,1.22c-1.9,1.54-4,5.48-6.07,3.16S300.22,463.49,301.88,461.81Z"/><path class="cls-1" d="M321.84,461.81c.71,1.18,1.89,1,3,1A4.75,4.75,0,0,1,324,464c-1.89,1.54-4,5.48-6.06,3.16S320.18,463.49,321.84,461.81Z"/><path class="cls-1" d="M341.79,461.81c.72,1.18,1.9,1,3,1A4.75,4.75,0,0,1,344,464c-1.89,1.54-4,5.48-6.06,3.16S340.14,463.49,341.79,461.81Z"/><path class="cls-1" d="M361.75,461.81c.72,1.18,1.9,1,3,1A5,5,0,0,1,364,464c-1.89,1.54-4,5.48-6.07,3.16C355.93,465,360.1,463.49,361.75,461.81Z"/><path d="M7.37,195.09c.53-5.1,3.15-9.62,4.14-14.59.72-2.19.38-4.76,2.35-6.49,32.76-33.21,66.3-65.69,98.76-99.17,1.6-1.68,3.78-2.23,5.83-3,4.72-1.51,9.11-4.2,14.28-4.19,6.8,1.05-1.79,7.22-3.6,9.41-8.93,9.13-18.25,17.88-26.93,27.25-2.85,2.82-6.42,4.64-9.59,7a165,165,0,0,0-42.54,42.55c-2.59,3-3.85,7-7,9.62-10.42,9.4-19.9,19.75-30,29.52-1.29,1.26-2.44,2.75-4.19,3.41C7.93,196.76,6.92,196.73,7.37,195.09Z"/><path d="M362.78,287.29c-.08,4.79-2.62,9-3.1,13.71-.69,2.24.05,4.92-2,6.74-37.39,36.52-73.89,74-111.09,110.71-1.24,1.39-3.05,1-4.57,1.45-5.73,1-11,3.73-16.93,4.06-.62-2.68,1.64-3.77,3-5.21,8.94-9.25,18.37-18,27.1-27.49,1.85-1.92,4.37-2.75,6.61-4.05,27.68-15.17,49-36.71,64.32-64.24,1.92-2.38,2.8-5.43,5-7.62,9.15-8.42,17.6-17.54,26.55-26.16,1.41-1.37,2.52-3.68,5.21-2.74C363.09,286.65,362.93,287.06,362.78,287.29Z"/><path d="M277.53,403.78c-7.18,3.32-13.8,7.83-21.43,10.2-1.93.42-1.31-.91-1-1.65,29.66-31.65,61.56-61.6,92-92.67,1.29-1.28,2.46-2.77,4.21-3.44,1-.38,2.07-.45,1.61,1.24-2.35,7.63-7,14.18-10.23,21.38-.67,4.2-3.22,7.25-6.11,10.12-7.78,6.71-14.71,14.28-22,21.54-9,9-18.33,17.7-26.81,27.23C284.84,400.54,281.6,402.87,277.53,403.78Z"/><path d="M35.62,135.92a221.65,221.65,0,0,1,39-39.11A69.46,69.46,0,0,1,102.11,80c1.56.5,1.56,1.52.88,2.72-25,26.33-51.46,51.49-77,77.41-1.17,1.17-2.22,2.57-3.81,3.16s-2.69.29-1.74-1.79C24.29,152.24,30.42,144.36,35.62,135.92Z"/><path class="cls-2" d="M352.9,317.46c-1.7-1.63-2.27.4-3,1.1q-46.45,46.32-92.79,92.76c-.64.64-2.44,1.11-1,2.66l-5.19,2.73c-1.47,1.1-2.86,2.51-4.91,1.19,36.53-37.24,73.31-74.56,110.91-110.68,1.55,2.11-.31,3.4-1.19,4.93Z"/><path class="cls-2" d="M20.48,161.5c.12.59.15,1.66,1,1.21a14.56,14.56,0,0,0,2.95-2.62q37.88-37.86,75.7-75.77c.92-.94,3.31-1.41,2.07-3.69.73-3.25,4-3.22,6.1-4.67,1.63-.44,3.22-1.49,5-.41-32.1,33.62-65.49,66.38-98.71,98.93-1.66-2.75,1.2-4,1.94-6Z"/><path d="M2.46,218.23c.41-3.49.81-7,1.22-10.47.38-1.62-.64-3.52.95-4.91,8.5-7.94,16.5-16.39,24.8-24.54,1.73-1.84,6.49-6.85,7-1.54-1.3,5.76-4.2,10.94-6,16.5a17.58,17.58,0,0,1-2.24,4.61C21,205.2,13.73,212.4,6.45,219.57c-1,1-2.17,2.48-3.76,1.73C1.49,220.72,2,219.31,2.46,218.23Z"/><path d="M324.84,45.47l7,5.58c1.22,2-.34,3.13-1.42,4.23Q318.93,67,307.24,78.47c-1.2,1.17-2.52,2.18-4.35,2a14.28,14.28,0,0,1-8.29-5.62c-.28-1.49.58-2.53,1.51-3.46,8.33-8.44,16.64-16.9,25.19-25.11a4.47,4.47,0,0,1,2.15-1.15A2.49,2.49,0,0,1,324.84,45.47Z"/><path d="M375.73,94.66a24.35,24.35,0,0,1,5,6.83c1.35,2.14-.27,3.46-1.48,4.7q-11.49,11.72-23.19,23.19c-1.19,1.18-2.51,2.21-4.38,1.89-3.09-1.6-4.45-4.52-5.7-7.52-.28-2.48,1.4-4,2.91-5.47,7.11-7.17,14.23-14.33,21.44-21.4C371.78,95.49,373.06,93.24,375.73,94.66Z"/><path d="M356.58,72.78a29.82,29.82,0,0,1,6.28,6.65c1.08,1.6.23,2.92-.82,4-8.36,8.51-16.6,17.15-25.41,25.21a3.3,3.3,0,0,1-1.36.6,3.69,3.69,0,0,1-1.44-.09c-2.76-1.93-5.39-4-6.63-7.31a3.58,3.58,0,0,1,.21-1.41c8.21-9.31,17.37-17.69,26.1-26.49C354.31,73.13,355.25,72.34,356.58,72.78Z"/><path d="M366.73,83.7l5.79,6.06a1.37,1.37,0,0,1,.74,1.12c-8.27,10.84-18.52,20.62-29.19,29.32a3,3,0,0,1-1.38-.27c-2-2.25-4.33-4.32-5.45-7.27a4,4,0,0,1-.06-1.43c.86-2.66,3.1-4.22,4.94-6.07,6.38-6.46,12.78-12.9,19.28-19.24C362.8,84.55,364.05,82.26,366.73,83.7Z"/><path d="M336.25,54.6a26.21,26.21,0,0,1,6.49,5.33c1.24,1.39.29,2.55-.59,3.44C333.59,72,325.33,81,316.16,89a2.5,2.5,0,0,1-.9.38,4.7,4.7,0,0,1-1.45.07c-3-1.14-5.12-3.44-7.34-5.62a3.49,3.49,0,0,1-.22-1.43,7.42,7.42,0,0,1,2.42-3.67c7.33-7.37,14.66-14.74,22.07-22C332.22,55.23,333.67,53.3,336.25,54.6Z"/><path d="M346.94,63.68a31.51,31.51,0,0,1,6.75,6.24c.46,1.55-.56,2.53-1.47,3.42C343.54,81.91,335.28,90.9,326.17,99a3.76,3.76,0,0,1-1.4.28c-3.39-1.12-5.37-3.85-7.39-6.53a3.84,3.84,0,0,1-.15-1.43c.44-1.9,1.87-3.09,3.15-4.37,7-7.06,14-14.12,21.14-21.08C343,64.48,344.27,62.27,346.94,63.68Z"/><path d="M213.87,426.81l-10.78,1.27a2.31,2.31,0,0,1-2.08,0c-.6-2.66,1.62-3.79,3-5.25,6.4-6.67,13.2-12.95,19.45-19.79,1.33-1.22,3.1-1.39,4.68-2,5.51-1.39,10.61-4.21,16.34-4.83,2.31.6,1.94,2.17.81,3.3-9.2,9.12-17.38,19.29-28,26.94C216.19,426.79,214.94,426,213.87,426.81Z"/><path d="M366.89,262.31c.36,5-1.29,9.88-1.41,14.87a3.23,3.23,0,0,1-.52,2.74c-7.74,8.35-16,16.24-24.09,24.22-1.36,1.33-3.75,4.91-5-.38.74-4.64,2.75-8.9,4-13.4.72-1.79.88-3.82,2.14-5.41,6.66-6.92,13.52-13.64,20.34-20.4C363.56,263.35,364.62,261.5,366.89,262.31Z"/><path d="M.37,234.35l.18-5c-.93-1-.4-1.82.23-2.66,6.72-6.26,13-13,19.63-19.34,3.32-3.15,4-2.88,5.27,1.45,0,2.76-.82,5.39-1.28,8.09-.33,1.19-.73,2.36-1.12,3.54a16.07,16.07,0,0,1-4.59,7c-4.73,4.64-9.28,9.48-14.16,14-1,1-2.29,4-4.49,1C.21,239.69-.33,237,.37,234.35Z"/><path class="cls-3" d="M384.57,106c3.89,4.44,2.16,7.5-1.77,11.13-8.34,7.7-16.15,16-24.29,24.12-1.49-2.15-2.71-3.89-3.93-5.64a2.67,2.67,0,0,1-.38-1.35,7.18,7.18,0,0,1,2.44-3.66q11.4-11.47,22.87-22.86c1.16-1.16,2.27-2.46,4.1-2.6A1,1,0,0,1,384.57,106Z"/><path d="M186.14,428.72h-4c-2.57-1.78-.57-3.24.53-4.36,5.72-5.79,11.23-11.8,17.39-17.15a10.15,10.15,0,0,1,2.79-1.25c3.92-.27,7.77-1.34,11.74-1.21,2.75.48,3.47,2,1.6,4.06-5.87,6.49-12.18,12.57-18.49,18.62-1.69,1.62-3.73.84-5.66,1S188.07,428,186.14,428.72Z"/><path d="M1.37,262.34c-.22-.13-.45-.26-.69-.38L.35,255.3c.08-2.33.16-4.67.23-7,4.47-7,11-12.16,16.88-17.84,2.62-2.53,3.65-1.59,4.33,3.64-.07,3.12.32,6.25-.33,9.35C16.53,250.59,9.8,256,3.65,262A1.83,1.83,0,0,1,1.37,262.34Z"/><path d="M367.93,235.33l-.32,1c-4.53,7.17-11.28,12.26-17.15,18.17-1,1-2.52,1.9-3.57-.25a44.76,44.76,0,0,1-.15-12.87c4.6-7.05,11.14-12.26,17.16-18a1.86,1.86,0,0,1,2.66-.07Q367.25,229.36,367.93,235.33Z"/><path class="cls-3" d="M170.6,428l-5.45-.24c-3.12-.31-4.26-1.55-1.77-4.17,4.51-4.75,9.16-9.37,13.9-13.9a8.19,8.19,0,0,1,5.91-2c.77-.05,1.54-.06,2.32-.05,2.86.38,7-1.32,8.26,1.48,1.42,3.26-2.82,5-4.8,7.26-2.63,2.95-5.72,5.5-8.32,8.47C177.86,428,174.72,429.38,170.6,428Z"/><path d="M206.09,62.71l3-.12,8.73,1.26,1.24.9c.57,2.23-1.18,3.31-2.38,4.58-3.1,3.24-6.43,6.27-9.47,9.57-2.66,2.9-5.74,4.43-9.68,4.14-2.59-.08-5.22.33-7.75-.57-2-1.32-1.32-3-.15-4.18C194.94,72.9,199.56,66.8,206.09,62.71Z"/><path d="M3.64,279.23a20.24,20.24,0,0,1-1.2-7.75c-1.11-3.53-.18-6.41,2.51-9,3.73-3.54,7.24-7.32,11-10.86,1.33-1.26,2.5-3.31,5-2.16,1.35,2.06.61,4.57,1.49,6.74a12.62,12.62,0,0,1-.18,6.87c-4.29,5.64-9.73,10.19-14.7,15.19C6.51,279.29,5.29,280.47,3.64,279.23Z"/><path d="M365.93,216.37c-.05.67-.11,1.34-.16,2-4.4,6.65-10.55,11.63-16.32,17a2.53,2.53,0,0,1-2.35.43,2.16,2.16,0,0,1-1.08-1.07c-1-3.11-.5-6.31-.57-9.47.09-1.82.32-3.66,1.58-5.06A185.23,185.23,0,0,1,361.27,206a2.35,2.35,0,0,1,2.28-.55Q364.73,210.91,365.93,216.37Z"/><path class="cls-4" d="M290.85,71.74A8.12,8.12,0,0,1,286.66,69q13.86-13.87,27.68-27.72c2.72-2.73,3.87.27,5.57,1.37,1.4,2.41-.53,3.74-1.84,5.07q-11,11.2-22.19,22.18C294.57,71.16,293.29,73.2,290.85,71.74Z"/><path d="M153.69,426a19.75,19.75,0,0,1-7.49-1.27c-2.42-1.42-.9-2.92.16-4,4.86-4.94,9.41-10.21,14.91-14.51a5.5,5.5,0,0,1,1.44-.4c2.84-.17,5.51.77,8.26,1.23,4.08,2.14,4.28,2.69,1.36,5.86-3.45,3.73-7.23,7.16-10.73,10.85C159.34,426.21,156.87,427.21,153.69,426Z"/><path d="M223.11,65.55l1.95,0,9.72,2.33c.1.39.42.89.47,1.21-4.56,7-9.81,13.27-17.67,16.83a36.09,36.09,0,0,1-10-1.47,2,2,0,0,1-1-1.08,2.54,2.54,0,0,1,.46-2.35C212.12,75.53,216.83,69.71,223.11,65.55Z"/><path d="M7.66,296.18c-1.1-2.85-2.17-5.71-2.2-8.82a6,6,0,0,1,1.48-6.76c3.55-3.65,7.11-7.3,10.83-10.78,1.61-1.5,3.39-2.94,5.39-.42,1.88,3.53,2.63,10.18-.17,13.34q-6,6.57-12.62,12.62A2.66,2.66,0,0,1,7.66,296.18Z"/><path d="M139,423c-3.08-.13-5.89-1.31-8.75-2.28-2.51-1.45-.81-2.94.21-4,4.53-4.59,8.69-9.58,13.92-13.46a5.56,5.56,0,0,1,2.21-.37c2.94.59,6,.64,8.68,2.37,1.58,1.36,1.5,2.9.23,4.32a171.05,171.05,0,0,1-12.91,12.92A2.66,2.66,0,0,1,139,423Z"/><path d="M359.56,190.45a26.55,26.55,0,0,1,2.31,8.64c.51,1.31.75,2.82-.13,3.83-4.85,5.55-9.23,11.65-16.13,15a2.06,2.06,0,0,1-1.32-.76,25.41,25.41,0,0,1-1.78-8.35c-.21-3.18,1.15-5.64,3.39-7.8,3.06-3,6-6.08,9.07-9C356.2,190.92,357.4,189.16,359.56,190.45Z"/><path d="M12.68,311.14a33,33,0,0,1-3.3-9.62,2.79,2.79,0,0,1,.35-3.28c4.46-5.11,9-10.2,14.54-14.17a1.6,1.6,0,0,1,1.44.05c2.43,2.78,2.47,6.45,3.61,9.71a5,5,0,0,1-.21,2.2c-4,5.34-9.07,9.59-13.75,14.25A2.56,2.56,0,0,1,12.68,311.14Z"/><path d="M239,69.74l1-.2,9.71,3.3a6,6,0,0,0,.3.8,2.26,2.26,0,0,1-.65,2.69q-5.67,6.26-11.94,11.94a6.52,6.52,0,0,1-4.59,1.58c-2.77-.29-5.51-.67-7.87-2.32-1.44-1.36-1.64-3-.28-4.36C229.28,78.49,233.24,73.15,239,69.74Z"/><path class="cls-3" d="M115.32,415.9l-1-1a2.45,2.45,0,0,1,.74-2.68c3.76-4.13,7.69-8.08,11.83-11.83a6.49,6.49,0,0,1,4.56-1.56,22.27,22.27,0,0,1,8.57,2.55,2.31,2.31,0,0,1,.78,1.22c.14,2.09-1.32,3.33-2.62,4.57-4.18,4-7.88,8.53-12.53,12.07a1.77,1.77,0,0,1-1.39-.09Z"/><path d="M358,184.45q-.1.47-.18,1c.56,1.31-.23,2.26-1,3.06-4,4.18-8,8.3-12.26,12.22a3.41,3.41,0,0,1-2.69,1.05,3,3,0,0,1-1.64-1.41c-.87-2.54-1.62-5.12-2.3-7.71a6.13,6.13,0,0,1,0-2.22c3.64-6,9.08-10.36,14.22-15a1.56,1.56,0,0,1,1.86-.06,2.27,2.27,0,0,1,.72.2Z"/><path class="cls-3" d="M263.66,78.85c.26.89,1,1.87.17,2.67-4.55,5-8.76,10.29-14.62,13.9a5.41,5.41,0,0,1-1.45.07A30.54,30.54,0,0,1,239,92a2.68,2.68,0,0,1-.55-1.35c3.22-6.32,8.85-10.39,14-14.94a2.13,2.13,0,0,1,2.75-.08Z"/><path class="cls-3" d="M14.27,316.16a8.43,8.43,0,0,0,.17-.9c-.59-1.3.22-2.25,1-3.06,3.47-3.75,7.09-7.35,10.82-10.84,1.42-1.34,3-2.11,4.8-.54a14.39,14.39,0,0,1,3.41,8.1,5.82,5.82,0,0,1-2.32,4.67c-4.56,3.74-7.28,9.63-13.42,11.51Z"/><path class="cls-3" d="M110.06,413c-.26,0-.52.1-.78.16l-8-4.26c-.45-.53-.82-1.26-.39-1.8,4.35-5.54,8.5-11.33,15.37-14.15a22.38,22.38,0,0,1,9,3.53,2.44,2.44,0,0,1,.57,1.36C121.83,404.21,117.29,410,110.06,413Z"/><path d="M347.67,161.52l1.12,1,3.06,7.8a2.26,2.26,0,0,1,0,2.79c-4.57,4.93-8.49,10.56-14.71,13.73a3.1,3.1,0,0,1-1.83-1.14,40.3,40.3,0,0,1-3.25-7.93,5,5,0,0,1,0-1.44C336.41,170.49,340.73,164.62,347.67,161.52Z"/><path d="M20.3,329.13a6.24,6.24,0,0,0,.08-1c4.14-5.73,8.82-10.91,15-14.6a3,3,0,0,1,1.36.38c2,2.41,3,5.31,4.33,8.1a3.73,3.73,0,0,1-.07,2.12c-3.54,4.77-8.11,8.53-12.25,12.73-.79.8-1.72,1.57-3,1.18Z"/><path class="cls-3" d="M346.05,157.51a4,4,0,0,0,0,.92c-4.22,5.69-8.89,10.92-15,14.65a3.14,3.14,0,0,1-1.38-.35c-2-2.42-3.1-5.31-4.35-8.13a4.23,4.23,0,0,1-.07-1.46c3.16-5.46,8.15-9.21,12.62-13.44a2.2,2.2,0,0,1,3.11-.21Z"/><path d="M268,81.66a5.9,5.9,0,0,0,.93-.11l7.77,4.22a1.42,1.42,0,0,1,.72,1.18C273,93,269,99.41,261.08,101.57a28.31,28.31,0,0,1-7.21-3.29,3.32,3.32,0,0,1-1.23-1.77C256.56,90.32,261,84.65,268,81.66Z"/><path class="cls-3" d="M95.87,406.11a28.59,28.59,0,0,1-7.53-4.3c-1-1.16-.47-2.28.34-3.1,4.29-4.32,7.92-9.34,13.33-12.45a5.26,5.26,0,0,1,1.48-.08c2.85.9,5.64,1.91,7.6,4.37a3,3,0,0,1-.2,3.66,95,95,0,0,1-11.76,11.72A3.06,3.06,0,0,1,95.87,406.11Z"/><path class="cls-3" d="M33.48,350.06a5.41,5.41,0,0,0-.89-.28l-4.22-7.44a2.47,2.47,0,0,1,.22-3.2c4.29-4.47,8-9.61,13.62-12.61a2.78,2.78,0,0,1,1.44.33c2.09,2.43,4.21,4.85,4.74,8.19A30.14,30.14,0,0,1,33.48,350.06Z"/><path class="cls-3" d="M84.16,399a3.75,3.75,0,0,0-.82.09l-7-5.33a1.84,1.84,0,0,1,.07-2.67c4.23-4.54,8.06-9.53,13.53-12.75a4.21,4.21,0,0,1,1.46.06c2.84,1.39,5.72,2.74,7.41,5.66a3.76,3.76,0,0,1-1.16,3.58c-3.34,3.63-6.83,7.1-10.44,10.45C86.41,398.9,85.45,399.63,84.16,399Z"/><path class="cls-3" d="M62.24,382.43a5.14,5.14,0,0,0-.86-.14L54.56,376c-.06-.31-.12-.61-.16-.91-.56-1.32.19-2.3,1-3.07,4.2-3.88,7.43-8.85,12.7-11.56a4,4,0,0,1,1.45.15c2.73,1.63,5.63,3.09,6.58,6.52.17,2.25-1.26,3.7-2.71,5C69.68,375.53,66.77,379.86,62.24,382.43Z"/><path class="cls-3" d="M51.46,372l-1-.22-5.17-6.52c-.37-.58-.73-1.33-.35-1.86,3.86-5.3,7.72-10.62,14.17-13.14,3.37,1,5.43,3.4,6.92,6.41a4.59,4.59,0,0,1,.06,1.48C62.14,363.72,58.17,369.31,51.46,372Z"/><path class="cls-3" d="M41.65,361a28.7,28.7,0,0,1-5.25-6.85,2.26,2.26,0,0,1,.25-3.17c4.24-4.38,7.88-9.43,13.35-12.5a3.13,3.13,0,0,1,1.42.2A29.51,29.51,0,0,1,56.9,346a4.07,4.07,0,0,1,.13,1.43c-3.19,5.48-8.19,9.28-12.71,13.53A1.85,1.85,0,0,1,41.65,361Z"/><path class="cls-3" d="M72.52,390.92c-1.72-1.15-9.22-5.72-7.43-8.08,4.2-4.85,7.76-10.43,14.21-12.78,3.55.51,5.69,2.95,7.65,5.63.14.65.34,1.41-.06,1.92C82.79,382.78,79,388.35,72.52,390.92Z"/><path class="cls-5" d="M296.8,390.75,287,397.18a15.82,15.82,0,0,1,1.66-2.41q22.29-22.36,44.66-44.66a18.84,18.84,0,0,1,2.81-1.93l-5.67,8.72A232.07,232.07,0,0,1,296.8,390.75Z"/><path class="cls-2" d="M228.05,40.92c-7.66-.17-15.31-.61-23,.21a1.38,1.38,0,0,1-1.15-.7c0-2.08,1.57-3.2,2.83-4.46,7.79-7.85,15.59-15.71,23.5-23.44,1.34-1.32,2.42-3.83,5.15-2.36a31.43,31.43,0,0,1,0,4.34c-1.72,3.93-5.31,6.24-8.12,9.2-4.65,4.89-9.54,9.53-14.39,14.48,17.52,3.36,16.13-10.31,22.36-8.28a19,19,0,0,1,.19,4.19,4.24,4.24,0,0,1-1.32,2.58c-2.24,1.89,0,2.18,1,3a.71.71,0,0,1-.32,1.07Z"/><path class="cls-6" d="M5.24,203.31l.31-3.88,1.82-4.34c2.18,1.47,2.75-.88,3.65-1.77,9.24-9.08,18.36-18.28,27.55-27.41,1.26-1.26,2.24-3,4.26-3.25.75,2.39-.93,4.12-1.64,6.12-2.06,2.47-1.76,6.69-5.71,7.76-1.6-.92-1.63-.95-3.19.61-7.62,7.6-15.21,15.23-22.85,22.81C8.17,201.22,7.17,202.86,5.24,203.31Z"/><path class="cls-6" d="M223.06,425l-6,.72c10-8.56,18.74-18.37,28.11-27.54.43-.41.25-.89-.21-1.24.33-2.91,3.3-2.43,4.84-3.8,2-.57,3.76-2.76,6.18-1.13-10.25,10.69-21.13,20.83-30.93,31.94Z"/><path class="cls-6" d="M364.6,279.24c-.2,1.67-.41,3.33-.62,5l-1.2,3.05c-2.3-1.13-2.73,1.26-3.69,2.2-7.85,7.66-15.55,15.47-23.34,23.19-1.27,1.27-2.27,2.91-4.21,3.37-.89-1.78.09-3.37.54-5,1.71-2.21,1.27-5.89,4.7-6.94,1.58.95,1.61,1,3.16-.57C348.21,295.49,356,287,364.6,279.24Z"/><path class="cls-7" d="M381.6,101.69l2.07,4c-10,9.34-19.85,18.9-29,29.13-2.08.06-2.72-1.45-3.31-3a1.26,1.26,0,0,1,.48-1.21c.62-.18,1.43-.18,1.84-.58q13.19-13.06,26.25-26.23c.52-.52.57-1.5.83-2.26C381.05,101.57,381.32,101.63,381.6,101.69Z"/><path class="cls-7" d="M290.85,71.74c1.47,0,2.43-.89,3.38-1.84q11.92-12,23.87-23.88a4.83,4.83,0,0,0,1.81-3.4l1.79.59,2.53,2.41c-10.45,8.91-19.65,19.09-29.33,28.8a1,1,0,0,1-1,.61A4.42,4.42,0,0,1,291,72.48,2.64,2.64,0,0,0,290.85,71.74Z"/><path class="cls-7" d="M332.47,50.94a7.83,7.83,0,0,0,3.38,2.69c.13.32.27.64.4,1a4.78,4.78,0,0,0-3.1,1.35c-8.72,9-18.06,17.36-26.3,26.8-1.89.65-3.06-.43-4.16-1.7a1.44,1.44,0,0,1,.07-1.31,4.35,4.35,0,0,0,3.05-1.48c8.32-8.34,16.67-16.66,25-25a7.46,7.46,0,0,0,1-2.18A5,5,0,0,1,332.47,50.94Z"/><path class="cls-7" d="M372.68,90.8l3,2.94c0,.31,0,.62,0,.92a165.49,165.49,0,0,0-28.91,28.79.92.92,0,0,1-1.19.36c-1.05-1.22-2.61-2.23-1.73-4.23Q358.81,105.71,372.68,90.8Z"/><path class="cls-2" d="M346.94,63.68c-.77.27-1.75.32-2.27.84-9,9-18.44,17.63-26.86,27.24-2.18.29-3.05-1-3.36-2.88,10-8.53,18.79-18.19,27.95-27.53.29-.3.23-.94.34-1.42a4.71,4.71,0,0,1,.75,0,8.24,8.24,0,0,0,3.27,2.9C346.82,63.09,346.87,63.38,346.94,63.68Z"/><path class="cls-2" d="M363.81,79.68a7.43,7.43,0,0,0,2.87,3.16c0,.28,0,.57.05.86-.63.18-1.46.16-1.86.57-9.13,9.13-18.75,17.8-27.19,27.62-2-.17-3.24-1-2.89-3.25,9.48-8.34,18-17.68,26.94-26.54.63-.62.76-1.77,1.13-2.67Z"/><path class="cls-7" d="M354.63,70.13l1.74,1.72q.12.47.21.93-12.33,12.14-24.67,24.27c-1.4,1.37-2.56,3.06-4.52,3.76a1.73,1.73,0,0,1-1.72-1.69c5.46-7.29,12.62-13,18.79-19.57,3-3.25,6.15-6.42,9.23-9.63C354,70,354.32,70.05,354.63,70.13Z"/><path class="cls-8" d="M1.38,227.31l0-3.95q.57-2.56,1.13-5.13c0,3.45,1.2,2.54,2.84.88,7.38-7.23,14.36-14.89,22.14-21.68,1.59,1.71.49,3.51.18,5.29-1.1,1.89,0,4.94-3.12,5.75.06-2.44-.51-3.15-2.53-1.09q-8.16,8.3-16.46,16.46C4.23,225.11,3.2,226.68,1.38,227.31Z"/><path class="cls-7" d="M201.11,427.8l-7,1.15-8-.23c.13-.11.27-.32.38-.3,9.58,1.38,14.27-5.82,19.9-11.35,3.06-3,6.07-6.08,9.12-9.11,1.22-1.2,1.11-1.91-.68-2.11.83-2.71,3.44-2,5.31-2.8,1.37-.2,2.74-.32,3.85.79C217,412.47,208.28,419.36,201.11,427.8Z"/><path class="cls-5" d="M367.85,257.29c0,1-.08,2-.13,3l-.83,2c-8.68,6.95-15.57,15.75-24,22.92-1.58-1.54-.55-3.3-.42-5a4.7,4.7,0,0,1,1.53-3.2c7.44-5.44,13.09-12.78,19.84-19,1.15-1,1.77-2.86,3.77-2.79C367.67,256,367.76,256.63,367.85,257.29Z"/><path class="cls-7" d="M179.15,429l-5-.07-3.55-1c3.83.54,6.48-1.29,9-4,4.53-4.78,9.38-9.27,15-14.76l-9.79-.46c3-4.11,7.32-1.68,11-2.32,1.52.22,3.14.16,4.24,1.52-5.42,5.57-10.87,11.11-16.24,16.73-1,1.06-3.07,1.84-1.74,4Z"/><path class="cls-8" d="M161.36,427.81a9.05,9.05,0,0,0-5.18-.78l-2.49-1a8.27,8.27,0,0,0,6.91-3c3.68-4,7.46-7.86,11.5-11.46,2.56-2.29.33-2.62-.94-3.52,1.23-1.57,3-1.42,4.73-1.55a43.35,43.35,0,0,1,5.09.23c1.14.28,2.21.65,2.45,2a8.25,8.25,0,0,0-6.54,2.81c-4.06,4.33-8.21,8.61-12.62,12.59-2.53,2.26-.44,2.64.88,3.56Z"/><path class="cls-6" d="M20.33,249.31c-5.38,5.27-10.7,10.6-16.18,15.77-2,1.89-1.44,4.19-1.71,6.4l-1-3.21,0-5.93,18.94-18C22,246,22,247.64,20.33,249.31Z"/><path class="cls-5" d="M22.3,269.26c-3.87-.88-16.84,14.5-16.84,18.1l-1.07-2.13a6.68,6.68,0,0,0-.94-4l.19-2c4.55-1.65,6.79-6,10.24-8.9,2.61-2.23,5-4.7,7.52-7.06a4.11,4.11,0,0,1,2,3.22A2.76,2.76,0,0,1,22.3,269.26Z"/><path class="cls-6" d="M347.65,235.38l18.12-17c.34,1,.69,2,1,3l-.25,2c-4.6,1.84-7,6.2-10.54,9.26-2.83,2.46-5.48,5.12-8.21,7.7C346.32,238.73,346.44,237.07,347.65,235.38Z"/><path class="cls-5" d="M143.3,424.64c-1.18-1-2.62-.84-4-.9A6.07,6.07,0,0,0,139,423c7-3.7,11.44-10,16.64-15.59.16-.16-.27-.88-.43-1.34a2.68,2.68,0,0,1,2.77-.88,4.68,4.68,0,0,1,3.22,1.87c-4.44,4.57-8.91,9.12-13.32,13.73-1,1.07-3,1.88-1.66,4Z"/><path class="cls-8" d="M345.53,217.49c5.59-4.15,9.89-9.62,15-14.31,1.22-1.14,1.27-2.61,1.39-4.09l1,1.32a6.53,6.53,0,0,0,1,4l-.26,1c-4.94,4.83-9.85,9.7-14.85,14.48a6.69,6.69,0,0,0-2.09,4.82,2.25,2.25,0,0,1-1.73-1.64C344.41,221.14,344.24,219.23,345.53,217.49Z"/><path class="cls-8" d="M25.28,284.23q-7.08,6.93-14.16,13.84a5.2,5.2,0,0,0-1.74,3.45,5.75,5.75,0,0,1-.8-.36,6.53,6.53,0,0,0-1.15-4l.23-1c4.74-4.62,9.45-9.27,14.24-13.84a6.46,6.46,0,0,0,1.76-4.48,2,2,0,0,1,1.56,1.23,11.26,11.26,0,0,1,.82,4.05A1.68,1.68,0,0,1,25.28,284.23Z"/><path class="cls-5" d="M341.9,201.41a158.84,158.84,0,0,0,15.88-16l1.64,3.13c.05.64.09,1.27.14,1.91-6.21,5.2-13.78,9.21-15.82,18.07-1.38.07-1.68-1-2-2C341.5,204.84,340.46,203.08,341.9,201.41Z"/><path class="cls-5" d="M128.62,420.72l-3.37-1.8,15.05-16.15c1.65-.85,3.2-1.36,3.95,1.08-3.57,4.79-8.29,8.49-12.28,12.87-1,1.1-3.06,1.84-1.74,4Z"/><path class="cls-9" d="M95.87,406.11c6.41-3,10.35-8.68,14.84-13.76.16-.18-.27-.89-.43-1.35a1.9,1.9,0,0,1,1.87-.61,10.56,10.56,0,0,1,4.24,2.29,1.1,1.1,0,0,1-.06,1.27,44,44,0,0,0-15,15l-1.88-.36L96.3,407A2.58,2.58,0,0,1,95.87,406.11Z"/><path class="cls-8" d="M255.14,75.65c-6.78,3.54-11.07,9.75-16.15,15.11-1.73,1.28-3.38.58-5-.18a1.82,1.82,0,0,1-1.05-1.85A5.09,5.09,0,0,0,237,87.24c4.26-4.62,9.23-8.56,13.06-13.6l4.88,1.24A4.25,4.25,0,0,0,255.14,75.65Z"/><path class="cls-8" d="M30.37,301.19c-.92-.49-1.77-.72-2.64.22-4.35,4.69-9.38,8.73-13.29,13.85l-1.92-3.1.16-1,15.9-15c2,0,2,1.77,2.48,3.06A2.05,2.05,0,0,1,30.37,301.19Z"/><path class="cls-8" d="M336.93,186.45c5.15-5.23,11.46-9.38,14.92-16.16a7.24,7.24,0,0,0,.79.25c.45,1.61.91,3.23,1.37,4.84a102.32,102.32,0,0,0-15.4,15.46C336.52,190,335.61,188.63,336.93,186.45Z"/><path class="cls-5" d="M35.74,314,20.38,328.16l-1.75-2.07a4.72,4.72,0,0,1,.07-1c5.05-5.22,11.3-9.34,14.78-16a1.11,1.11,0,0,1,1.38.09C36.06,310.64,36.84,312.16,35.74,314Z"/><path class="cls-5" d="M84.16,399c5.13-4.55,10.63-8.76,14.15-14.84a1.31,1.31,0,0,1,1.17-.55c1.59.53,3.09,1.15,3.09,3.21-5.18,4.56-10.72,8.78-14.23,14.95a4,4,0,0,1-.85.07Z"/><path class="cls-5" d="M340.92,149.49c-6.39,3.14-10.22,9-15.05,13.88-2.53.14-2.51-1.69-2.65-3.4,3.76-6,9.74-9.93,14.07-15.39a1.91,1.91,0,0,1,1.31-.35,3.43,3.43,0,0,1,1.84,3.43Z"/><path class="cls-8" d="M42.57,327.08c-5.11,4.74-11,8.78-14.2,15.26-.29-.08-.57-.17-.85-.27a5.37,5.37,0,0,0-1.86-3,4,4,0,0,1,0-1c5.47-4.27,9.37-10.23,15.21-14.09C42.62,324.38,43.45,325.26,42.57,327.08Z"/><path class="cls-6" d="M50.35,339.12c-4.89,4.79-10.78,8.67-14,15.07a5.88,5.88,0,0,0-.81-.18l-2.11-3.95c4.94-4.78,10.82-8.69,14-15.1a1.28,1.28,0,0,1,1.28.06C49.65,336.24,51.2,337.22,50.35,339.12Z"/><path class="cls-6" d="M41.65,361c6.05-3.43,10.09-9,14.74-13.91,2.2-.55,2.38,1.48,3.29,2.58a1.7,1.7,0,0,1-.09,1.29,36.68,36.68,0,0,0-14.25,14.27l-.92-.23a8,8,0,0,0-2.85-3.28A5.87,5.87,0,0,1,41.65,361Z"/><path class="cls-8" d="M72.52,390.92c4.8-4.76,10.58-8.61,13.8-14.84a1.15,1.15,0,0,1,1.2-.41c1.27.83,3.16,1.14,2.82,3.33-5,4.64-10.56,8.7-14,14.8a4.22,4.22,0,0,1-.79.07,4.9,4.9,0,0,0-2.8-2.07A6.82,6.82,0,0,0,72.52,390.92Z"/><path class="cls-7" d="M79.67,370.88A37,37,0,0,0,65.35,385.1c-.31-.05-.63-.08-.94-.12l-2.17-2.55c2.69-4.35,6.91-7.27,10.24-11,1.16-1.3,2.87-2.25,2.87-4.32a1.15,1.15,0,0,1,1.22-.37,7.54,7.54,0,0,1,3,2.82A2,2,0,0,1,79.67,370.88Z"/><path class="cls-6" d="M108.3,100.69l-6.9,3.21c2.84-4.74,7.32-8,11.07-11.85,6.64-6.87,13.52-13.51,20.18-20.38.51-.52,4.24-1.69.31-3l5.27-2c1.51-.61,2.71-2.3,4.67-1.32,1.5,2.75-1,3.85-2.35,5.2-7.29,7.47-14.72,14.8-22.09,22.18-1.4,1.4-3,2.65-3.74,4.58A8.74,8.74,0,0,1,108.3,100.69Z"/><path class="cls-5" d="M268,81.66a132.53,132.53,0,0,0-15,14.93c-2.17,1.12-3.57.56-4.09-1.88a122.26,122.26,0,0,0,15.07-15A6.89,6.89,0,0,1,268,81.66Z"/><path class="cls-8" d="M239,69.74c-4.1,4.26-8.23,8.51-12.3,12.81-1,1.09-3,1.9-1.66,4a2.64,2.64,0,0,1-2.67.89,12.88,12.88,0,0,1-4.18-1.35,1.3,1.3,0,0,1-.34-1.32c7.11-3.93,11.82-10.42,17.22-16.17A5.25,5.25,0,0,1,239,69.74Z"/><path class="cls-7" d="M223.11,65.55,207,82.86c-1.74,1.4-3.79,1.2-5.82,1.15-1.44-.24-3-.37-3.43-2.15,3.58.29,6.23-1.19,8.61-3.86,4.07-4.56,8.44-8.85,12.68-13.25C220.48,64.67,221.92,64.49,223.11,65.55Z"/><path class="cls-7" d="M51.46,372a99.9,99.9,0,0,0,14.13-14.36,3.09,3.09,0,0,1,3.09,3.25A99,99,0,0,0,54.4,375.05,6.51,6.51,0,0,1,51.46,372Z"/><path class="cls-6" d="M330.82,172.48l15.19-14a4.8,4.8,0,0,1,1.66,3.09,136.43,136.43,0,0,0-14.89,15C330.32,176.07,329.79,174.65,330.82,172.48Z"/><path class="cls-2" d="M22.31,220.39l-.66,8c1.24,1.46,1.08,3,.38,4.64a1.39,1.39,0,0,1-1.4.65l-.4-4.2L.58,248.3a10.36,10.36,0,0,1,0-5c6.52-6.38,13.08-12.72,19.53-19.16C21.1,223.16,21.58,221.66,22.31,220.39Z"/><path d="M367.57,255.3c-6.47,7.88-14.21,14.54-21.24,21.87-.52.54-1.09.69-1.6-.06-2.38-3.7.11-7.39,0-11.08.39-1.49.76-3,1.26-4.43,5.65-7.14,12.54-13.08,19-19.48a2.42,2.42,0,0,1,2.69-.79A82.49,82.49,0,0,1,367.57,255.3Z"/><path class="cls-6" d="M367.66,241.33,347,261.28c-1.27-.83-1.29-2.14-1.32-3.45a4.82,4.82,0,0,1,.63-2.22,1,1,0,0,1,1.32-.38c7.4-5.53,12.93-13,20-18.88C367.62,238,367.64,239.67,367.66,241.33Z"/><path class="cls-7" d="M206.09,62.71c-4.66,4.83-9.33,9.65-14,14.51-1.22,1.27-2.92,2.24-3,4.31a3,3,0,0,1-2,1.26,24.45,24.45,0,0,1-4.76.19,5.76,5.76,0,0,1-2.92-.79c-.54-.53-.77-1.38-.06-1.63,6.92-2.44,10.66-8.64,15.83-13.15,2.71-2.36,4.61-5.68,8.22-7,.87,0,1.16.74,1.69,1.19Z"/><path d="M160.19,83.67c-4.76-.21-9.19,1.87-13.89,2-1.8.8-2.6.26-1.94-1.65.49-1.45,1.73-2.42,2.78-3.47Q185.68,42,224.22,3.5A14.83,14.83,0,0,1,229,0L235,0c0,3.29,0,6.58-.08,9.87Q220,24.56,205.2,39.25a5.5,5.5,0,0,0-.79,1.75h0c-13.28,14.61-27.65,28.15-41.61,42.12C162,83.64,161.22,84.22,160.19,83.67Z"/><path d="M209.07,0l15,0c.42,2.2-1.29,3.29-2.52,4.53Q195.16,31,168.71,57.27c-1.31,1.29-2.73,4.42-5.43,1.44A45.79,45.79,0,0,1,163.1,46c.56-2.22,2.29-3.61,3.8-5.13q18.49-18.51,37-37A15.67,15.67,0,0,1,209.07,0Z"/><path d="M189.11,0l15,0c.38,2.4-1.53,3.53-2.87,4.87Q185.14,21.11,169,37.19c-1.88,1.87-3.69,3.92-6.8,3.08H151.35c-1.48,0-1.62-.87-1.14-2A11.67,11.67,0,0,1,153,34.83Q168.82,19,184.66,3.14A14.31,14.31,0,0,1,189.11,0Z"/><path d="M133.41,39.77c0-1.33,0-2.66,0-4a14,14,0,0,1,3.13-4.44q14.11-14.06,28.18-28.18A14.14,14.14,0,0,1,169.16,0l15,0c.43,1.77-.82,2.79-1.83,3.82Q165.28,21,148.17,38c-1.19,1.19-2.44,2.27-4.27,2.28C140.41,40,136.86,40.85,133.41,39.77Z"/><path class="cls-2" d="M164.05,59.75c20.44-19.22,39.88-40,60-59.7l5,0c-27,27.66-54.56,54.74-81.73,82.21-.7.7-4,1.44-1,3.48l-5.08,2-5,.85c-.45-2,1.07-3,2.19-4.16,7.29-7.25,14.4-14.7,21.9-21.74.65-.5,1.38-.87,2-1.36A12.06,12.06,0,0,1,164.05,59.75Z"/><path d="M133.41,30.79v-15A58.09,58.09,0,0,1,149.2,0l15,0c.44,2-1.05,3-2.16,4.14q-12.17,12.27-24.44,24.43C136.42,29.73,135.39,31.22,133.41,30.79Z"/><path class="cls-2" d="M163.18,39.79a3.77,3.77,0,0,0,2.65-1.17Q184.94,19.33,204.07.05l5,0C194.3,15.2,179.63,30.45,164,44.78c-1.22-1-.38-2.53-1-3.69l.13-.35C162.62,40.47,162.79,39.9,163.18,39.79Z"/><path class="cls-2" d="M145.21,39.76c12.95-13.25,26.16-26.25,38.9-39.71l5,0c-12.9,13.31-26.4,26.06-38.9,39.74A5.57,5.57,0,0,1,145.21,39.76Z"/><path class="cls-2" d="M133.41,30.79Q149.22,15.85,164.15.05l5,0Q151.72,18.36,133.4,35.78Z"/><path class="cls-2" d="M149.2,0a201.32,201.32,0,0,1-15.8,15.8v-5A28,28,0,0,1,144.2.05Z"/><path d="M144.2.05a94.69,94.69,0,0,1-10.79,10.78c0-3.61-.07-7.22-.1-10.83Z"/><path class="cls-5" d="M110.06,413a107.89,107.89,0,0,0,15.27-15.25c1.75-1.2,3.38-.45,5,.3.66.45,1.17,1,.94,1.86a5,5,0,0,0-4,1.47c-4.3,4.51-8.65,9-13,13.45A6.51,6.51,0,0,1,110.06,413Z"/><path class="cls-5" d="M262,101.73l-.91-1.1c2,.29,3.42-.84,4.68-2.23,3.67-4,8-7.36,11.25-11.8A4.8,4.8,0,0,1,280,88.44c.79,1.78-.56,2.78-1.54,3.76-3.95,3.91-7.6,8.13-12,11.63a3.17,3.17,0,0,1-1.36.29A4.24,4.24,0,0,1,262,101.73Z"/><path d="M234.85,14.87q0,7.49,0,15a13.54,13.54,0,0,0-2.58,2.28c-5.25,7.78-12.73,9-20.88,7.33C219.08,31.4,227,23.14,234.85,14.87Z"/><path class="cls-4" d="M234.86,34.82c0,1.66,0,3.31,0,5h-4.35C231.49,37.31,233.2,36.09,234.86,34.82Z"/><path class="cls-3" d="M322.88,159.41l-4-7c-.1-.13-.29-.26-.29-.4-.25-4.74,9.43-14.5,14.33-14.47a22.6,22.6,0,0,1,4.87,7c-3.33,6.3-9,10.37-14.13,15A5.32,5.32,0,0,1,322.88,159.41Z"/><path d="M266,103.47c4.27-5.41,10.06-9.39,14.07-15a3.47,3.47,0,0,0,.91,0l8.05,5.2a4.91,4.91,0,0,1,.08.67,1.83,1.83,0,0,1-.26,2.27c-4.25,4.52-8.09,9.49-13.52,12.76a4.84,4.84,0,0,1-1.47.06C270.87,107.87,267.3,107.15,266,103.47Z"/><path class="cls-10" d="M145.21,39.76l18,0c0,.32,0,.63,0,1-6.66.08-13.32.24-20,.22l-9.84-.25a1.14,1.14,0,0,1,0-.94Z"/><path d="M143.21,65.88l2-1c5.1-2.29,10.2-4.52,15.92-2L136.25,88.53l-4.33,2c-6.11,1.11-11.38,4.56-17.26,6.33-1.59-2.18.8-2.75,1.68-3.66C125.24,84,134.24,75,143.21,65.88Z"/><path class="cls-5" d="M332.93,137.52c-5.92,3.78-11.42,8-14,14.87l-1.2-.85c-.71-1.28-1.41-2.57-2.11-3.86a56.11,56.11,0,0,1,14.3-14.24l3,3Z"/><path d="M306.62,136.68l-.76-.07a25.58,25.58,0,0,0-5.77-6.11,1.4,1.4,0,0,1-.72-1.17c3.92-5.7,7.9-11.34,14.81-13.85l.72,0,5.87,6.16c0,.3.07.61.1.91.59,1.54-.42,2.53-1.31,3.46-3.07,3.24-6.21,6.41-9.47,9.46C309.16,136.33,308.16,137.35,306.62,136.68Z"/><path d="M303.75,105.69l7.19,5.91c0,.26,0,.52,0,.78a1.62,1.62,0,0,1-.07,1.83c-4.18,4.73-8.1,9.72-13.66,13a3.68,3.68,0,0,1-1.44-.13c-2.49-1.86-5.06-3.63-6.6-6.47a4.18,4.18,0,0,1,1.62-4C295.16,113,297.77,107.35,303.75,105.69Z"/><path class="cls-6" d="M296.86,126.6A101.48,101.48,0,0,0,311,112.38a7.77,7.77,0,0,1,3.2,3.1,99.89,99.89,0,0,0-14.28,14.06C297.65,129.84,296.66,128.83,296.86,126.6Z"/><path class="cls-5" d="M306.62,136.68a98.76,98.76,0,0,0,14.25-14.15l2.64,2.17a4.16,4.16,0,0,1,.12.93c-3.42,6-9.1,10-13.75,14.89-.26,0-.51-.06-.77-.08Z"/><path d="M309.88,140.52c3.18-6.26,9-10.05,13.75-14.89l6.24,6.93a6.44,6.44,0,0,0,0,.88,97.72,97.72,0,0,1-14.3,14.24,6,6,0,0,1-.74-.1Z"/><path class="cls-3" d="M293.74,97.71a20.09,20.09,0,0,1,6.18,4.84c.42.54.79,1.27.39,1.8-4,5.26-7.8,10.8-14.43,13.23a10.7,10.7,0,0,1-7.67-5.8c-.17-4,3.22-5.56,5.33-8a57.22,57.22,0,0,1,5.32-5.24C290.29,97.31,291.83,96.4,293.74,97.71Z"/><path class="cls-8" d="M293.74,97.71c-2.33-.4-3.73,1.1-5,2.63-3.18,3.89-8.11,6.29-9.87,11.41a1.7,1.7,0,0,1-1.28.23c-1.46-.64-3-1.22-2.94-3.22a89.87,89.87,0,0,0,14.4-14.45l3.84,2.18Z"/><path class="cls-8" d="M285.57,116.78a37,37,0,0,0,14.35-14.23l.95.1a4.52,4.52,0,0,0,2.66,2.13c.08.3.15.6.22.91-4.83,4.7-10.5,8.61-13.8,14.75a1,1,0,0,1-1.14.52,7.18,7.18,0,0,1-3.09-2.81A2.09,2.09,0,0,1,285.57,116.78Z"/><path class="cls-7" d="M68.29,180.44l3.42-6.82a147.94,147.94,0,0,1,40.67-40.81c2.09-1.45,3.4-4.41,6.71-3.54,1.17,2.28-.78,3.37-1.94,4.54Q94.9,156.23,72.48,178.49C71.37,179.59,70.33,181.17,68.29,180.44Z"/><path d="M119.21,129.39l8.05-4.79c4.64-4.32,10.57-5.51,16.47-6.75,1.87.44,1.91,1.56,1.06,3C118.55,148.22,91,174.59,64.35,201.65c-1.85,1.93-6.35,6.71-7,1.38,1.09-6,2.83-11.79,7.09-16.47l3.85-6.12c4.39-3.07,7.75-7.22,11.52-10.95q18.06-17.87,36-35.93C117,132.29,118.64,131.26,119.21,129.39Z"/><path d="M179.15,81.53l-8.5.28c-1.58.37-3.29.83-2.32-1.88a6.85,6.85,0,0,1,1.79-2.36q14.9-15,29.9-29.86c1.1-1.09,2.12-2.71,4.16-1.94a82.26,82.26,0,0,1,0,15c-5.57,4.2-10,9.58-15,14.44C186.29,78.06,183.56,81.07,179.15,81.53Z"/><path class="cls-2" d="M204.18,45.77c-12,10.66-22.78,22.57-34.31,33.71-1.42,1.38-1.34,2.18.78,2.33l-4.47,1-4-.07c11.77-13,24.68-24.92,37-37.44,1.58-1.61,2.79-3.78,5.28-4.31Z"/><path d="M152.13,116.41l4.36-1.64c3.89.11,7.56-1.7,11.48-1.22,1.64-.66,2.74-.44,2.08,1.62-.52,1.62-1.94,2.68-3.11,3.85Q112.27,173.7,57.56,228.33c-1.42,1.42-2.56,3.63-5.23,3-.46-4.31,1.3-8.39,1.25-12.66l1.83-5.31A26.53,26.53,0,0,1,60,207.56C91,177.47,120.42,145.62,152.13,116.41Z"/><path class="cls-2" d="M52.33,231.36c38.82-37.25,76.21-76.11,114.44-114,.72-.73,4.7-1.39,1.2-3.8l4.18-1,4,.22c.31,3-2.26,4.27-3.92,5.93C132,158.85,91.73,199.29,51.58,239.32l-.32-1,.21-5Z"/><path class="cls-2" d="M184.3,119.6q0,29.93,0,59.85c1.45,1.49,1.07,3.43,1.32,5.22.06,4.83,0,9.66,0,14.49.2,1.81-.18,3.62,0,5.43.05,4.83,0,9.67,0,14.51.2,1.81-.18,3.62,0,5.43,0,4.84,0,9.67-.06,14.51a10.1,10.1,0,0,1-1.29,5.27l-3.2,2.83-6.89,3.29c-.78-1.79.51-2.9,1.56-3.81,6.79-5.88,6.3-5.55,6.1-17.82-13.66,13.78-27.15,27-40.42,40.55l-7.21,4.85-6.89,3.32c-1-3,1.65-4.1,3.14-5.6,15-15.1,29.88-30.24,45.14-45,4.51-4.37,7.35-8.81,6.37-15.2a7.32,7.32,0,0,1,.5-3.43c-29.37,29.76-59,58.27-87.81,88.11l-8.44,5.54-6.87,3.3c-.47-3.08,2.16-4.3,3.81-5.95,30.76-30.85,61.46-61.75,92.49-92.32,5.15-5.08,7.51-10.22,5.87-17.5C144.53,225.91,108,263,71.09,299.59c-1.63,1.62-2.8,4.35-5.94,3.69l-1.68-2.11.11-1c.6-2.63,2.77-4.08,4.5-5.81,35.8-35.84,71.53-71.74,107.55-107.35,5.13-5.07,7.62-10.18,5.93-17.23-39.27,37.8-77.42,77.4-116.37,115.75-1.62,1.63-2.79,4.33-5.91,3.74L57.5,286l0-1.78c40.3-38.34,78.66-78.82,118.56-117.62,5.07-5,6.9-10.09,5.48-16.81C138.94,191,97.43,233.88,55.23,275.63a2.41,2.41,0,0,1-.76-.4c0-1.41.13-2.84-.88-4l0-2.93c41.64-39.8,81.48-81.63,122.77-121.87,5-4.94,6.51-10,5.3-16.51-42,40.2-82.53,82.49-124.07,123.37-1.61,1.62-2.93,3.67-5.33,4.35l-.94-4.33c.1-.66.2-1.33.29-2,38.38-39.42,77.93-77.86,116.62-117,6.27-6.28,14.32-11.45,14.92-21.67h1C184.19,115,184.24,117.27,184.3,119.6Z"/><path d="M183.13,112.61c1.1,6.16-1.64,10.36-6,14.68q-60.43,59.93-120.5,120.24c-1.48,1.48-2.59,3.55-5,3.77,0-4,0-8,0-12A20.14,20.14,0,0,1,56.19,233c39.9-40.17,80.46-79.72,120-120.28Z"/><path d="M52.24,257.62c41.39-43.16,84.61-84.69,126.66-127.25,1.1-1.11,1.91-2.72,3.84-3,1.29,8.06.06,14.45-6.41,20.81-39.63,38.91-78.72,78.37-118,117.59-1.22,1.21-2,3.86-4.71,2.47l-1.31-6C52.26,260.73,52.25,259.17,52.24,257.62Z"/><path d="M55.23,275.63c.11-1.81,1.27-3,2.46-4.18,42-41.53,83.08-83.8,125.41-124.94-.35,7.57,1.23,13.77-5,19.94-38.88,38.17-77.23,76.88-115.81,115.35-1.22,1.22-2,3.84-4.72,2.44A24.13,24.13,0,0,1,55.23,275.63Z"/><path d="M59.28,289.26c40.36-38.81,79.28-79.19,119.15-118.52,1.25-1.25,2.21-2.89,4.33-3.52,1,7.79.5,14.12-6,20.45C138.64,224.74,101.66,263,63.58,300.16q-2.11-4.47-4.22-9Z"/><path d="M65.15,303.28c39.63-38.08,78.11-77.6,116.87-116.52,1.22,7.58,2,13.82-4.39,20-33,32.58-66.2,65-98.27,98.42l-7.24,4.85c-2.22,1.35-3.71.82-4.7-1.63a38.78,38.78,0,0,0-2.32-4.23A6.94,6.94,0,0,0,65.15,303.28Z"/><path d="M141.43,269.35c-1.38-1.12,0-1.71.53-2.29q19.66-19.69,39.38-39.33a6.1,6.1,0,0,1,1.52-.74c.72,7.84,1.61,15.37-6.21,20.4-1,.67-1.65,2-2.46,3l-7.17,4.8Z"/><path d="M94.67,296.36c-1.74-1.35,0-2,.67-2.62,29.26-28.77,57.6-58.69,87.38-86.81,1.24,8.32.33,14.88-6.37,21.09-15.71,14.56-30.5,30.11-45.64,45.29-1.26,1.27-2.9,2.29-3.38,4.21L118.88,283Z"/><path class="cls-2" d="M152.13,116.41c-31.35,33-64.16,65.11-96.72,97l.8-5c.71-1.72,1.41-3.45,2.12-5.17.2.69.08,2,1.32,1.25a13.38,13.38,0,0,0,2.54-2.35q39.89-39.88,79.73-79.82c1-1,3.27-1.42,2.29-3.69l4-1.85Z"/></g></g></svg>